<svg id="Capa_1" data-name="Capa 1" xmlns="http://www.w3.org/2000/svg" viewBox="0 0 242.88 167.08">
  <defs>
    <style>
      .cls-1 {
        fill: #016380;
      }

      .cls-2 {
        fill: #a8a8a8;
      }

      .cls-3 {
        fill: none;
        stroke: #016380;
      }

      .cls-4 {
        font-size: 8px;
        fill: #176480;
        font-family: Myriad Bold;
        font-weight: 700;
      }
    </style>
  </defs>
  <title>logo</title>
  <rect class="cls-1" y="106.85" width="14.6" height="42.23"/>
  <path class="cls-1" d="M28.37,109.14h13.3v7.79h0.16c2.92-6.08,8.75-8.76,15.4-8.76,6,0,10.95,2.59,13.21,8.1,3.4-5.67,9-8.1,15-8.1,12.16,0,14.92,6.89,14.92,18.32v24.89H85.75v-22.7c0-4.78-1.69-8.35-5.84-8.35-5.19,0-8.26,4.13-8.26,13.21v17.83H57.06v-22.7c0-4.78-1.7-8.35-5.84-8.35-5.19,0-8.27,4.13-8.27,13.21v17.83H28.37V109.14Z" transform="translate(-5.34 -2.29)"/>
  <path class="cls-1" d="M142.49,121.22a16,16,0,0,0-8.83-2.35c-6.33,0-11.19,4.37-11.19,11.67,0,6.74,5.68,11.1,12,11.1a20.11,20.11,0,0,0,9.08-2l0.32,10.86a39.38,39.38,0,0,1-11.9,1.86c-13.94,0-24.56-8.1-24.56-22S118,108.17,132,108.17a26.16,26.16,0,0,1,11.58,2.36Z" transform="translate(-5.34 -2.29)"/>
  <path class="cls-1" d="M230.87,121.22a16,16,0,0,0-8.84-2.35c-6.32,0-11.17,4.37-11.17,11.67,0,6.74,5.67,11.1,12,11.1a20.08,20.08,0,0,0,9.07-2l0.33,10.86a39.43,39.43,0,0,1-11.92,1.86c-13.95,0-24.56-8.1-24.56-22s10.62-22.13,24.56-22.13a26.17,26.17,0,0,1,11.59,2.36Z" transform="translate(-5.34 -2.29)"/>
  <path class="cls-1" d="M150.56,157.29a17.63,17.63,0,0,0,5.76.89c3.57,0,6.32-2.11,7.37-5.84l-17.1-43.2h15.73l9.08,27.55h0.16l8.67-27.55h14.59l-15.48,39.31c-4.13,10.62-7.29,20.92-20.67,20.92a42.64,42.64,0,0,1-9.08-1Z" transform="translate(-5.34 -2.29)"/>
  <path class="cls-2" d="M176.8,34.45a16,16,0,0,1,25.24,0l22.61-13.06a42,42,0,0,0-70.46,0Z" transform="translate(-5.34 -2.29)"/>
  <path class="cls-2" d="M187.1,60.28a16,16,0,0,1-12.62-21.83l-22.6-13a42,42,0,0,0,35.22,61V60.28Z" transform="translate(-5.34 -2.29)"/>
  <path class="cls-1" d="M227,25.41l-22.6,13a16,16,0,0,1-12.62,21.83V86.37A42,42,0,0,0,227,25.41Z" transform="translate(-5.34 -2.29)"/>
  <path class="cls-3" d="M236.88,114.95a5.42,5.42,0,1,1,5.42,5.42A5.43,5.43,0,0,1,236.88,114.95Z" transform="translate(-5.34 -2.29)"/>
  <text class="cls-4" transform="translate(234.52 115.36) scale(1.1 1)">R</text>
</svg>
